<svg width="6" height="5" viewBox="0 0 6 5" fill="none" xmlns="http://www.w3.org/2000/svg">
<mask id="mask0" mask-type="alpha" maskUnits="userSpaceOnUse" x="0" y="0" width="6" height="5">
<path d="M0.516479 2.58371H1.32458V4.13363H0.516479V2.58371Z" fill="white" fill-opacity="1"/>
<path d="M1.51721 1.7756H2.32532V4.13363H1.51721V1.7756Z" fill="white" fill-opacity="1"/>
<path d="M2.51807 0.159393H3.32617V4.13679H2.51807V0.159393Z" fill="white" fill-opacity="1"/>
<path d="M3.51843 0.967499H4.32654V4.13679H3.51843V0.967499Z" fill="white" fill-opacity="1"/>
<path d="M4.51929 2.58371H5.32739V4.13994H4.51929V2.58371Z" fill="white" fill-opacity="1"/>
</mask>
<g mask="url(#mask0)">
<line x1="0.516479" y1="4.00303" x2="5.51586" y2="4.00303" stroke="#FFFFFF" stroke-width="0.1"/>
<line x1="0.516479" y1="3.65751" x2="5.51586" y2="3.65751" stroke="#FFFFFF" stroke-width="0.1"/>
<line x1="0.516479" y1="3.31205" x2="5.51586" y2="3.31205" stroke="#FFFFFF" stroke-width="0.1"/>
<line x1="0.516479" y1="2.96653" x2="5.51586" y2="2.96653" stroke="#FFFFFF" stroke-width="0.1"/>
<line x1="0.516479" y1="2.58652" x2="5.51586" y2="2.58652" stroke="#FFFFFF" stroke-width="0.1"/>
<line x1="0.516479" y1="2.24106" x2="5.51586" y2="2.24106" stroke="#FFFFFF" stroke-width="0.1"/>
<line x1="0.516479" y1="1.89557" x2="5.51586" y2="1.89557" stroke="#FFFFFF" stroke-width="0.1"/>
<line x1="0.516479" y1="1.54484" x2="5.51586" y2="1.54484" stroke="#FFFFFF" stroke-width="0.1"/>
<line x1="0.516479" y1="0.861302" x2="5.51586" y2="0.861302" stroke="#FFFFFF" stroke-width="0.1"/>
<line x1="0.516479" y1="1.1941" x2="5.51586" y2="1.1941" stroke="#FFFFFF" stroke-width="0.1"/>
<line x1="0.516479" y1="0.509679" x2="5.51586" y2="0.509679" stroke="#FFFFFF" stroke-width="0.1"/>
<line x1="0.516479" y1="3.88422" x2="5.51586" y2="3.88422" stroke="#FFFFFF" stroke-width="0.1"/>
<line x1="0.516479" y1="3.5387" x2="5.51586" y2="3.5387" stroke="#FFFFFF" stroke-width="0.1"/>
<line x1="0.516479" y1="3.19321" x2="5.51586" y2="3.19321" stroke="#FFFFFF" stroke-width="0.1"/>
<line x1="0.516479" y1="2.84769" x2="5.51586" y2="2.84769" stroke="#FFFFFF" stroke-width="0.1"/>
<line x1="0.516479" y1="2.46775" x2="5.51586" y2="2.46775" stroke="#FFFFFF" stroke-width="0.1"/>
<line x1="0.516479" y1="2.12223" x2="5.51586" y2="2.12223" stroke="#FFFFFF" stroke-width="0.1"/>
<line x1="0.516479" y1="1.77674" x2="5.51586" y2="1.77674" stroke="#FFFFFF" stroke-width="0.1"/>
<line x1="0.516479" y1="1.42603" x2="5.51586" y2="1.42603" stroke="#FFFFFF" stroke-width="0.1"/>
<line x1="0.516479" y1="0.742498" x2="5.51586" y2="0.742498" stroke="#FFFFFF" stroke-width="0.1"/>
<line x1="0.516479" y1="1.07529" x2="5.51586" y2="1.07529" stroke="#FFFFFF" stroke-width="0.1"/>
<line x1="0.516479" y1="0.391088" x2="5.51586" y2="0.391088" stroke="#FFFFFF" stroke-width="0.1"/>
<line x1="0.516479" y1="4.11658" x2="5.51586" y2="4.11658" stroke="#FFFFFF" stroke-width="0.1"/>
<line x1="0.516479" y1="3.77103" x2="5.51586" y2="3.77103" stroke="#FFFFFF" stroke-width="0.1"/>
<line x1="0.516479" y1="3.42557" x2="5.51586" y2="3.42557" stroke="#FFFFFF" stroke-width="0.1"/>
<line x1="0.516479" y1="3.08005" x2="5.51586" y2="3.08005" stroke="#FFFFFF" stroke-width="0.1"/>
<line x1="0.516479" y1="2.73456" x2="5.51586" y2="2.73456" stroke="#FFFFFF" stroke-width="0.1"/>
<line x1="0.516479" y1="2.35459" x2="5.51586" y2="2.35459" stroke="#FFFFFF" stroke-width="0.1"/>
<line x1="0.516479" y1="2.00913" x2="5.51586" y2="2.00913" stroke="#FFFFFF" stroke-width="0.1"/>
<line x1="0.516479" y1="1.66361" x2="5.51586" y2="1.66361" stroke="#FFFFFF" stroke-width="0.1"/>
<line x1="0.516479" y1="1.31287" x2="5.51586" y2="1.31287" stroke="#FFFFFF" stroke-width="0.1"/>
<line x1="0.516479" y1="0.629369" x2="5.51586" y2="0.629369" stroke="#FFFFFF" stroke-width="0.1"/>
<line x1="0.516479" y1="0.962133" x2="5.51586" y2="0.962133" stroke="#FFFFFF" stroke-width="0.1"/>
<line x1="0.516479" y1="0.27863" x2="5.51586" y2="0.27863" stroke="#FFFFFF" stroke-width="0.1"/>
<line x1="0.516479" y1="0.155126" x2="5.51586" y2="0.155126" stroke="#FFFFFF" stroke-width="0.1"/>
</g>
</svg>
